<?xml version="1.0" encoding="UTF-8"?> <svg xmlns="http://www.w3.org/2000/svg" xmlns:xlink="http://www.w3.org/1999/xlink" xmlns:xodm="http://www.corel.com/coreldraw/odm/2003" xml:space="preserve" width="210mm" height="70mm" version="1.1" style="shape-rendering:geometricPrecision; text-rendering:geometricPrecision; image-rendering:optimizeQuality; fill-rule:evenodd; clip-rule:evenodd" viewBox="0 0 21000 7000"> <defs> <style type="text/css"> .fil0 {fill:#2272B5} .fil1 {fill:#5E5D60} </style> </defs> <g id="Capa_x0020_1"> <metadata id="CorelCorpID_0Corel-Layer"></metadata> <g id="_2577810563408"> <path class="fil0" d="M3727.33 5115.13c-333.91,-411.48 -547.29,-921.57 -668.28,-1507.25 472.81,-380.83 1043.4,-653.24 1717.48,-810.9 300.32,595.59 464.15,1224.76 402.74,1909.37 -483.99,225.67 -967.95,366.99 -1451.94,408.78zm-1250.66 -604.52c-3.86,-194.34 97.41,-390.66 259.73,-588.1 128.61,432.18 317.41,826.54 559.32,1187.51 -360.78,-26.94 -810.5,-166.58 -819.05,-599.41zm3629.07 -1697.62c115.74,325.37 189.5,659.72 226.42,1001.99 277.08,-430.63 254,-787.73 -226.42,-1001.99zm-806.29 -925.66c346.66,123.91 356.12,616.41 -20.9,641.53 -436.95,-11.04 -530.02,-412.24 -362.54,-588.32 95.98,-100.9 260.81,-97.05 383.44,-53.21zm-2207.79 465.49c282.12,-168.89 587.13,-311.76 924.82,-417.49 -441.89,-250.29 -766.56,-19.7 -924.82,417.49zm1487.92 3242.31c-214.77,25.15 -412.52,-78.18 -604.17,-227.39 400.29,-75.55 782.7,-192.44 1145.49,-354.68 -82.96,276.82 -228.31,545.46 -541.32,582.07zm885.42 -3922.43c532.61,4.79 961.66,109.46 1268.57,331.88 301.71,218.62 436.37,501.52 422.11,876.23 -19.87,522.04 -395.5,976 -807.75,1359.84 -64.53,1053.13 -422.53,1666.09 -1055.81,1866.12 -681.27,215.2 -1293.39,-196.52 -1743.09,-677.77 -820.74,48.1 -1403.08,-105.07 -1734.79,-469.82 -289.08,-317.87 -329.57,-682.93 -191.96,-1083.31 137.44,-399.82 463.25,-792.75 957.13,-1181.33 31.47,-433.78 128.47,-986.21 456.14,-1384.91 363.61,-442.45 867.91,-571.3 1405.23,-396.85 357.7,116.14 699.28,368.05 1024.22,759.92z"></path> <path class="fil1" d="M8796.13 2098.38c-20.09,-280.95 -403.11,-280.02 -420.67,-0.33 -8.96,575.77 -34.36,1144.79 -73.49,1703.3 -12.15,191.74 105.64,285.56 232.79,269.54 338.96,1.37 677.91,2.72 1016.88,4.09 215.36,6.41 258.17,-337.19 -4.08,-338.96 -245.03,1.35 -490.08,2.72 -735.11,4.08 -54.47,-1.4 -90.81,-13.27 -86.44,-133.33 24.5,-503.68 45.61,-1004.71 70.12,-1508.39zm1872.03 285.04c151.16,2.93 283.73,27.28 383.82,72.41 145.99,65.85 231.58,190.18 230.61,398.91 -14.17,342.79 -28.32,685.58 -42.49,1028.37 4.15,98.33 -28.23,164.29 -118.06,179.24 -89.5,14.88 -156.65,-42.58 -288.19,-9.1 -527.4,108.27 -844.18,43.94 -970.89,-176.1 -97.34,-169.06 -78.71,-399.39 48.3,-548.39 234.13,-274.73 766.53,-241.92 936.03,-401.91 73.59,-69.46 63.67,-162.1 -26.01,-211.95 -162.34,-90.27 -536.33,-8.07 -677.54,48.48 -138.57,50.35 -251.29,-133.78 -157.94,-245.09 87.74,-104.57 544.06,-137.56 682.36,-134.87zm-441.86 1121.08c134.24,-134.47 487.43,-168.07 657.33,-262.02 -7.5,162.26 -15,324.52 -22.5,486.79 -246.76,86.23 -516.42,131.24 -631.46,30.37 -76.03,-66.7 -74.44,-183.96 -3.37,-255.14zm3852.62 -1121.08c151.16,2.93 283.73,27.28 383.82,72.41 145.99,65.85 231.57,190.18 230.61,398.91 -14.17,342.79 -28.32,685.58 -42.49,1028.37 4.15,98.33 -28.23,164.29 -118.07,179.24 -89.5,14.88 -156.64,-42.58 -288.18,-9.1 -527.4,108.27 -844.18,43.94 -970.89,-176.1 -97.34,-169.06 -78.71,-399.39 48.29,-548.39 234.14,-274.73 766.54,-241.92 936.03,-401.91 73.6,-69.46 63.68,-162.1 -26,-211.95 -162.34,-90.27 -536.33,-8.07 -677.54,48.48 -138.57,50.35 -251.29,-133.78 -157.94,-245.09 87.74,-104.57 544.06,-137.56 682.36,-134.87zm-441.86 1121.08c134.24,-134.47 487.43,-168.07 657.32,-262.02 -7.49,162.26 -15,324.52 -22.49,486.79 -246.76,86.23 -516.42,131.24 -631.46,30.37 -76.04,-66.7 -74.44,-183.96 -3.37,-255.14zm5294.69 -1121.08c151.16,2.93 283.72,27.28 383.81,72.41 146,65.85 231.58,190.18 230.61,398.91 -14.16,342.79 -28.32,685.58 -42.48,1028.37 4.14,98.33 -28.24,164.29 -118.07,179.24 -89.5,14.88 -156.65,-42.58 -288.18,-9.1 -527.4,108.27 -844.18,43.94 -970.9,-176.1 -97.33,-169.06 -78.71,-399.39 48.3,-548.39 234.13,-274.73 766.53,-241.92 936.03,-401.91 73.6,-69.46 63.68,-162.1 -26,-211.95 -162.35,-90.27 -536.33,-8.07 -677.55,48.48 -138.57,50.35 -251.29,-133.78 -157.94,-245.09 87.74,-104.57 544.07,-137.56 682.37,-134.87zm-441.87 1121.08c134.24,-134.47 487.43,-168.07 657.33,-262.02 -7.5,162.26 -15,324.52 -22.5,486.79 -246.76,86.23 -516.41,131.24 -631.45,30.37 -76.04,-66.7 -74.44,-183.96 -3.38,-255.14zm-580.41 -1079.16c221.63,61.55 132.88,326.78 -19.38,328.32 -33.79,0.33 -87.82,-19.23 -123.73,-26.99 -271.1,-58.64 -467.93,-11.32 -582.72,153.02 -98.86,141.58 -123.03,348.62 -103.15,517.27 40.3,341.88 288.14,457.64 747.18,343.3 86.72,-21.59 164.28,0.2 200.58,87.66 15.64,37.63 14.61,79.66 1.38,117.23 -37.35,105.91 -122.94,110.44 -217.61,126.77 -579.81,99.96 -931.2,-45.42 -1065.26,-424.2 -95.68,-270.4 -77.96,-619.93 52.46,-875.82 194.6,-381.8 608.17,-446.63 1110.25,-346.56zm-2578.02 166.28c-83.5,-170.51 -351.74,-129.3 -363.03,79.85 -10.42,387.43 -29.03,773.94 -61.64,1158.9 -7.57,89.61 -0.4,163.9 84.96,217.09 112.8,70.26 294.26,26.76 307.07,-166.34 8.98,-352.68 8,-726.87 90.72,-919.26 42.65,-99.24 130.52,-175 231.34,-211.37 120.09,-43.34 257.95,-36.04 357.54,11.09 180.33,85.31 146.23,272.12 140.54,441.15 -6.26,185.84 -22.8,426.08 -36.45,651.09 -13.3,274.37 373.04,315.82 387.74,13.65 12.74,-318.57 25.49,-637.14 38.23,-955.71 14.64,-644.7 -913.03,-633.24 -1177.02,-320.14zm-2994.33 511.15c-137.03,-0.51 -274.05,-1.03 -411.08,-1.55 -6.2,183.04 -12.4,366.09 -18.61,549.14 -1.18,65.69 30.56,97.54 94.62,96.17 115.83,0 231.65,0 347.47,0 479.04,-12.73 500.34,-659.62 -12.4,-643.76zm-83.03 -319.61c-104.05,0 -208.09,0 -312.14,0 5.85,-156.07 11.68,-312.14 17.53,-468.21 -0.32,-77.16 34.51,-108.56 99.96,-108.72 117.49,0 234.98,0 352.47,0 199.71,8.19 276.65,124.86 269.25,251.98 -10.44,179.31 -112.79,325.79 -427.07,324.95zm-745.5 990.88c19.84,-548.47 39.67,-1096.95 59.5,-1645.42 5.92,-147.27 71.43,-234.94 219.53,-240.04 220.89,-2.73 441.79,-5.47 662.68,-8.2 788.95,-20.27 749.4,827.39 361.09,1044.27 232.73,127.89 305.4,323.25 285.67,587.77 -20.42,273.57 -209.05,540.59 -706.26,552.95 -214.74,2.73 -429.47,5.47 -644.21,8.2 -176.96,6.86 -259.94,-89.12 -238,-299.53zm-2907.76 1796.53c-24.86,130.83 -77.19,171.39 -159.61,171.39 -41.87,0 -77.18,-6.55 -104.66,-15.71l-36.64 160.92c28.79,11.77 90.28,20.93 145.23,20.93 200.16,0 295.67,-90.27 338.83,-313.98l111.2 -582.17 -188.38 0 -105.97 558.62zm791.28 -316.6l-56.48 296.98c-24.86,126.9 -90.27,204.09 -154.15,204.09 -47.1,0 -63.89,-32.72 -63.89,-73.27 0,-23.55 3.92,-54.94 9.16,-85.04l65.19 -342.76 -188.17 0 -68.03 357.15c-9.16,44.49 -13.08,83.74 -13.08,117.74 0,121.68 61.49,179.24 164.83,179.24 76.98,0 154.16,-35.32 219.36,-119.05l2.62 1.3 -11.78 103.36 166.36 0c7.86,-57.56 18.32,-126.9 34.02,-208.02l81.12 -431.72 -187.08 0zm748.53 467.05c-51.02,24.85 -109.89,40.56 -179.23,40.56 -54.95,0 -98.12,-17.01 -122.98,-49.71 -13.08,-18.32 -19.62,-47.11 -20.92,-65.42 257.72,6.54 416.02,-52.33 416.02,-214.55 0,-119.06 -92.89,-192.32 -222.4,-192.32 -231.56,0 -372.86,202.78 -372.86,397.71 0,167.46 94.2,270.81 276.04,270.81 71.96,0 164.85,-13.08 239.42,-51.02l-13.09 -136.06zm-83.73 -290.44c0,60.19 -73.25,79.81 -221.09,78.5 13.08,-58.87 64.1,-132.13 151.75,-132.13 43.18,0 69.34,22.24 69.34,53.63zm214.56 696c44.48,24.86 122.98,40.56 209.32,40.56 85.04,0 177.93,-17.01 247.26,-71.96 75.88,-61.48 112.51,-166.14 134.76,-283.89l96.8 -527.23c-68.03,-27.47 -146.52,-44.48 -236.79,-44.48 -278.66,0 -430.41,209.32 -429.11,419.95 1.31,125.59 78.5,228.95 205.4,228.95 75.88,0 133.45,-30.1 183.16,-95.5l2.61 0 -10.47 54.94c-27.47,128.21 -96.8,170.07 -190.99,170.07 -54.95,0 -132.15,-14.38 -167.47,-35.32l-44.48 143.91zm451.35 -559.94c-20.93,107.29 -82.42,176.62 -143.91,176.62 -57.56,0 -86.34,-47.1 -86.34,-112.51 0,-120.36 81.11,-247.26 194.92,-247.26 26.18,0 53.65,5.24 68.03,11.78l-32.7 171.37zm685.53 -328.37c-227.64,0 -382.01,183.16 -382.01,404.25 0,159.61 108.59,265.58 270.81,265.58 221.1,0 382.01,-171.38 382.01,-405.56 0,-146.53 -99.42,-264.27 -270.81,-264.27zm-24.86 143.91c74.58,0 100.74,62.8 100.74,121.67 0,108.59 -58.87,260.34 -159.61,260.34 -66.72,0 -103.35,-49.71 -103.35,-124.28 0,-99.43 53.63,-257.73 162.22,-257.73zm329.68 474.9c37.94,27.48 113.83,48.41 194.94,49.71 170.07,1.31 294.35,-78.5 294.35,-225.02 0,-88.96 -73.26,-139.98 -143.9,-175.3 -51.02,-24.86 -77.2,-47.1 -77.2,-73.26 0,-35.33 32.72,-56.26 83.74,-56.26 54.95,0 100.73,15.69 126.89,27.47l45.8 -133.44c-31.4,-17.01 -90.27,-32.71 -164.85,-32.71 -164.83,0 -281.27,87.65 -281.27,221.1 0,79.8 61.49,133.44 134.76,170.07 58.86,28.78 79.79,51.03 79.79,82.43 0,31.39 -27.47,57.56 -81.11,57.56 -61.49,0 -129.52,-26.17 -166.14,-44.48l-45.8 132.13zm962.05 -41.87c47.09,0 90.91,-13.51 131.47,-40.33 40.55,-27.05 75.66,-61.93 105.32,-105.1 29.65,-42.95 52.98,-91.36 69.99,-145.22 17.01,-53.86 25.51,-107.28 25.51,-160.48 0,-31.18 -3.06,-63.02 -9.16,-95.72 -6.1,-32.48 -17.66,-61.92 -34.67,-88.08 -17.01,-25.96 -40.77,-47.54 -71.29,-64.33 -30.54,-17.01 -69.78,-25.52 -117.75,-25.52 -49.71,0 -95.06,13.96 -136.06,41.65 -40.99,27.91 -76.32,63.67 -105.96,107.72 -29.66,43.82 -52.55,92.23 -68.69,145.22 -16.13,52.98 -24.2,104.66 -24.2,155.24 0,35.55 4.14,70 12.43,103.58 8.28,33.35 21.8,62.79 40.55,87.87 18.76,25.29 42.96,45.56 72.61,60.61 29.65,15.26 65.85,22.89 108.58,22.89l1.32 0zm-15.71 92.89c-56.68,0 -106.19,-9.81 -148.49,-29.43 -42.3,-19.63 -77.18,-46.02 -104.66,-79.15 -27.47,-33.15 -47.96,-71.31 -61.49,-114.48 -13.51,-43.17 -20.27,-88.31 -20.27,-135.4 0,-38.38 3.48,-76.97 10.47,-115.78 6.97,-38.81 17.44,-76.54 31.39,-113.16 13.96,-36.64 30.75,-71.53 50.37,-104.67 19.62,-33.14 42.08,-63.23 67.38,-90.27 39.24,-39.24 85.47,-70.43 138.67,-93.54 53.2,-23.11 108.59,-34.67 166.15,-34.67 59.31,0 110.11,10.03 152.42,30.09 42.3,20.06 76.75,46.67 103.34,79.8 26.61,33.15 46.23,71.52 58.88,115.14 12.64,43.6 18.97,88.95 18.97,136.05 0,37.5 -3.28,75.45 -9.82,113.82 -6.54,38.38 -16.35,75.67 -29.43,111.86 -13.09,36.2 -29.22,70.64 -48.4,103.35 -19.19,32.71 -41,62.14 -65.42,88.31 -39.25,41.86 -84.82,74.35 -136.71,97.46 -51.9,23.11 -109.25,34.67 -172.04,34.67l-1.31 0zm558.97 -14.39l103.35 -548.16 -83.72 0 15.69 -85.04 85.04 0 5.24 -34.02c7.85,-44.48 20.05,-85.9 36.63,-124.28 16.57,-38.37 38.81,-70.21 66.71,-95.5 20.07,-18.32 43.18,-32.27 69.35,-41.87 26.16,-9.59 53.2,-14.38 81.11,-14.38 22.68,0 40.99,1.73 54.94,5.23 13.96,3.71 24.87,7.63 32.71,11.99l-23.55 87.44c-17.44,-7.86 -38.81,-11.78 -64.1,-11.78 -21.81,0 -40.78,5.02 -56.92,15.04 -16.12,9.82 -30.08,23.33 -41.85,40.12 -11.78,17.01 -21.59,36.63 -29.44,59.31 -7.85,22.47 -13.96,46.88 -18.32,72.83l-5.23 29.87 141.29 0 -17.01 85.04 -139.98 0 -103.35 548.16 -108.59 0zm555.18 -749.63c-19.19,0 -34.68,-6.77 -46.45,-20.28 -11.78,-13.52 -17.66,-30.31 -17.66,-50.37 0.87,-21.8 8.51,-40.11 22.89,-54.94 14.39,-14.83 31.62,-22.25 51.68,-22.25 20.06,0 36.42,6.76 49.06,20.29 12.65,13.51 18.97,30.3 18.97,50.36 -0.88,22.68 -8.5,41.21 -22.89,55.6 -14.4,14.39 -32.49,21.59 -54.3,21.59l-1.3 0zm-202.79 749.63l120.36 -633.2 108.59 0 -120.37 633.2 -108.58 0zm735.87 -24.86c-16.57,8.72 -40.56,17.44 -71.96,26.17 -31.39,8.72 -68.46,13.08 -111.2,13.08 -40.99,0 -76.75,-6.32 -107.27,-18.97 -30.53,-12.64 -55.82,-30.09 -75.88,-52.33 -20.06,-22.24 -35.1,-48.18 -45.13,-77.84 -10.04,-29.65 -15.05,-61.49 -15.05,-95.5 0,-54.08 9.59,-106.19 28.78,-156.34 19.19,-50.15 45.79,-94.63 79.81,-133.44 34.01,-38.82 74.78,-69.77 122.31,-92.89 47.54,-23.11 99.65,-34.66 156.35,-34.66 29.65,0 56.68,3.26 81.11,9.8 24.41,6.54 41.42,12.87 51.02,18.97l-31.4 85.04c-12.21,-6.11 -27.26,-11.55 -45.13,-16.36 -17.88,-4.79 -38.6,-7.19 -62.14,-7.19 -41,0 -78.07,9.16 -111.21,27.48 -33.14,18.31 -61.27,42.3 -84.38,71.95 -23.11,29.66 -40.99,63.23 -53.64,100.73 -12.64,37.51 -18.97,75.01 -18.97,112.52 0,52.33 13.08,93.75 39.25,124.28 26.16,30.53 65.41,45.79 117.74,45.79 33.14,0 61.7,-3.93 85.69,-11.78 23.99,-7.84 44.27,-15.69 60.83,-23.55l10.47 85.04zm321.28 -724.77c-19.19,0 -34.67,-6.77 -46.45,-20.28 -11.77,-13.52 -17.66,-30.31 -17.66,-50.37 0.88,-21.8 8.51,-40.11 22.9,-54.94 14.39,-14.83 31.62,-22.25 51.67,-22.25 20.07,0 36.42,6.76 49.06,20.29 12.65,13.51 18.97,30.3 18.97,50.36 -0.87,22.68 -8.5,41.21 -22.89,55.6 -14.39,14.39 -32.49,21.59 -54.29,21.59l-1.31 0zm-202.78 749.63l120.36 -633.2 108.59 0 -120.37 633.2 -108.58 0zm789.63 -553.39c-7.85,-2.62 -17.66,-4.8 -29.44,-6.54 -11.77,-1.75 -26.81,-2.62 -45.13,-2.62 -40.99,0 -79.58,9.81 -115.78,29.43 -36.19,19.85 -67.81,45.79 -94.85,78.06 -27.04,32.49 -48.41,69.34 -64.1,110.99 -15.71,41.43 -23.55,84.6 -23.55,129.08 0,17.44 1.75,34.88 5.23,51.89 3.49,17.01 9.38,32.05 17.67,45.14 8.27,13.3 19.18,23.77 32.7,31.61 13.51,7.85 30.74,11.78 51.67,11.78 22.68,0 46.01,-6.97 69.99,-20.93 23.99,-13.95 46.45,-33.8 67.38,-59.1 20.94,-25.29 39.46,-55.81 55.6,-91.14 16.13,-35.53 28.13,-74.13 35.98,-116.21l36.63 -191.44zm-69.34 553.39c0,-19.19 1.31,-42.95 3.92,-71.3 2.63,-28.35 6.11,-59.09 10.47,-92.23l-2.61 0c-34.89,66.28 -73.49,112.51 -115.78,138.67 -42.3,26.17 -85.7,39.25 -130.18,39.25 -27.91,0 -53.2,-5.24 -75.87,-15.7 -22.68,-10.47 -41.87,-25.07 -57.56,-43.82 -15.71,-18.76 -27.7,-40.78 -35.98,-66.07 -8.29,-25.29 -12.43,-53.2 -12.43,-83.73 0,-54.94 9.81,-109.46 29.43,-163.54 19.63,-54.07 48.19,-102.48 85.69,-145.21 37.51,-42.74 83.29,-77.4 137.37,-104.01 54.08,-26.6 115.56,-39.89 184.46,-39.89 30.53,0 61.06,2.18 91.58,6.54 30.53,4.36 56.69,10.02 78.5,17l-64.11 330.99c-10.46,54.95 -17.87,108.58 -22.23,160.92 -4.36,52.32 -5.68,96.37 -3.93,132.13l-100.74 0zm260.94 0l176.62 -928.87 108.58 0 -176.61 928.87 -108.59 0zm728.7 -483.18c0,-25.3 -8.95,-44.7 -26.83,-58.66 -17.87,-13.73 -41.2,-20.71 -69.99,-20.71 -26.16,0 -50.37,5.67 -72.61,16.78 -22.24,11.35 -42.08,26.61 -59.52,45.58 -17.44,19.19 -32.7,40.56 -45.8,64.32 -13.08,23.77 -22.67,47.97 -28.77,72.17 42.73,0.87 82.42,-0.21 119.05,-3.27 36.63,-3.05 68.68,-9.16 96.16,-18.09 27.47,-9.16 49.05,-21.59 64.75,-37.07 15.7,-15.7 23.56,-35.54 23.56,-59.75l0 -1.3zm23.55 447.85c-23.55,13.09 -53.65,24.65 -90.28,34.68 -36.63,10.02 -76.32,15.04 -119.05,15.04 -41.86,0 -78.05,-6.75 -108.59,-20.28 -30.52,-13.51 -55.6,-31.83 -75.22,-54.95 -19.62,-23.1 -34.01,-50.14 -43.17,-81.11 -9.16,-30.96 -13.74,-63.89 -13.74,-98.77 0,-47.97 8.5,-96.15 25.51,-144.56 17.01,-48.41 40.56,-92.01 70.64,-130.83 30.09,-38.81 66.29,-70.43 108.59,-94.85 42.3,-24.42 89.18,-36.62 140.64,-36.62 60.18,0 106.18,15.69 138.02,47.09 31.83,31.39 47.76,70.21 47.76,116.43 0,41.87 -10.9,76.1 -32.72,102.7 -21.8,26.6 -51.67,47.75 -89.61,63.46 -37.94,15.69 -82.64,26.38 -134.1,32.05 -51.45,5.66 -106.4,8.06 -164.83,7.19 -2.63,13.96 -2.84,33.15 -0.66,57.56 2.18,24.43 6.76,45.35 13.74,62.8 12.21,28.78 30.52,50.15 54.95,64.11 24.41,13.95 53.2,20.93 86.34,20.93 37.5,0 70.21,-4.59 98.11,-13.74 27.92,-9.16 51.9,-18.97 71.96,-29.44l15.71 81.11zm148.51 -74.57c14.83,9.6 34.68,18.54 59.53,26.83 24.86,8.28 50.37,12.43 76.53,12.43 36.64,0 65.85,-10.25 87.66,-30.75 21.8,-20.28 32.7,-44.49 32.7,-72.39 0,-25.3 -6.54,-46.45 -19.62,-63.89 -13.08,-17.44 -36.19,-35.32 -69.34,-53.64 -36.63,-20.05 -64.75,-43.38 -84.39,-70.42 -19.62,-27.04 -29.42,-56.92 -29.42,-90.05 0,-27.91 5.66,-53.65 17,-77.63 11.34,-23.98 27.25,-44.7 47.75,-62.14 20.5,-17.23 44.7,-30.97 72.61,-40.99 27.91,-10.03 58.87,-15.04 92.89,-15.04 27.91,0 53.63,3.26 77.18,9.8 23.55,6.54 41.44,13.74 53.64,21.59l-30.09 82.42c-11.33,-6.98 -26.38,-13.52 -45.13,-19.62 -18.76,-6.11 -39.91,-9.16 -63.46,-9.16 -33.13,0 -60.39,9.16 -81.76,27.47 -21.36,18.32 -32.05,41 -32.05,68.03 0,22.68 7.41,42.08 22.24,58.22 14.82,16.13 36.63,32.05 65.41,47.75 35.76,20.06 64.32,43.83 85.69,71.3 21.37,27.48 32.05,59.53 32.05,96.16 0,33.14 -6.32,62.79 -18.97,88.96 -12.65,26.16 -29.87,47.97 -51.67,65.42 -21.8,17.44 -47.31,30.74 -76.53,39.89 -29.23,9.17 -60.84,13.74 -94.86,13.74 -34.01,-0.87 -64.97,-5.45 -92.88,-13.96 -27.91,-8.5 -49.27,-18.31 -64.1,-29.87l31.39 -80.46z"></path> </g> </g> </svg> 